<svg xmlns="http://www.w3.org/2000/svg" width="23.646" height="23.646" viewBox="0 0 23.646 23.646">
  <path id="android-bulb" d="M14.073,9.541a5.079,5.079,0,0,1,4.373,7.641A5.172,5.172,0,0,1,16.6,19.005l-.838.489v4.714H12.384V19.494l-.838-.489a5.117,5.117,0,0,1-2.54-4.4,5.088,5.088,0,0,1,5.067-5.067M15.2,2.25H12.947V5.628H15.2Zm6.812,2.843L19.985,7.12,21.561,8.7,23.588,6.67,22.011,5.093Zm-15.876,0L4.558,6.67,6.585,8.7,8.162,7.12,6.135,5.094Zm7.938,2.76A6.759,6.759,0,0,0,10.7,20.464V25.9h6.756V20.464A6.759,6.759,0,0,0,14.073,7.852ZM25.9,13.482H22.518v2.252H25.9Zm-20.268,0H2.25v2.252H5.628Z" transform="translate(-2.25 -2.25)" fill="#ffffff"/>
</svg>
