<svg xmlns="http://www.w3.org/2000/svg" width="21.827" height="23.646" viewBox="0 0 21.827 23.646">
  <path id="thumbs-o-up" d="M3.638,19.1a.874.874,0,0,0-.27-.64.893.893,0,0,0-1.28,0,.893.893,0,0,0,0,1.28.893.893,0,0,0,1.28,0A.874.874,0,0,0,3.638,19.1Zm16.37-8.186a1.733,1.733,0,0,0-.554-1.272,1.752,1.752,0,0,0-1.264-.547h-5a5.8,5.8,0,0,1,.682-2.267,5.807,5.807,0,0,0,.682-2.281A3.711,3.711,0,0,0,14.1,2.487a2.067,2.067,0,0,0-1.819-.668,2.352,2.352,0,0,0-.54,1.208q-.17.838-.434,1.783a3.617,3.617,0,0,1-.845,1.556q-.313.327-1.094,1.293-.057.071-.327.426t-.447.583q-.177.227-.49.6a8.179,8.179,0,0,1-.568.625q-.256.249-.547.5a2.422,2.422,0,0,1-.568.384,1.215,1.215,0,0,1-.5.128H5.458v9.095h.455a2.859,2.859,0,0,1,.447.043q.263.043.469.093t.54.156q.334.106.5.164l.5.177q.341.12.412.149a15.708,15.708,0,0,0,4.86,1.037h1.72q2.729,0,2.729-2.373a4.866,4.866,0,0,0-.071-.8,1.585,1.585,0,0,0,.675-.746,2.394,2.394,0,0,0,.249-1.044,1.971,1.971,0,0,0-.256-.981,2.247,2.247,0,0,0,.753-1.691,2.559,2.559,0,0,0-.142-.789,1.911,1.911,0,0,0-.355-.675q.455-.014.76-.668a2.785,2.785,0,0,0,.305-1.151Zm1.819-.014a4.108,4.108,0,0,1-.7,2.316,3.706,3.706,0,0,1,.128.981,4.079,4.079,0,0,1-.54,2.046,4.306,4.306,0,0,1,.043.611,4,4,0,0,1-.853,2.529A4.023,4.023,0,0,1,18.7,22.5a4.529,4.529,0,0,1-3.226,1.144H13.642a11.467,11.467,0,0,1-2.693-.32q-1.329-.32-3.076-.93a10.518,10.518,0,0,0-1.961-.568H1.819a1.752,1.752,0,0,1-1.286-.533A1.752,1.752,0,0,1,0,20.009v-9.1A1.752,1.752,0,0,1,.533,9.627a1.752,1.752,0,0,1,1.286-.533H5.713a12.539,12.539,0,0,0,1.947-2.2Q8.484,5.826,9.18,5.073a2.414,2.414,0,0,0,.5-1.215q.164-.86.434-1.8A3.419,3.419,0,0,1,11,.525,1.8,1.8,0,0,1,12.278,0a4.856,4.856,0,0,1,2.146.462A3.121,3.121,0,0,1,15.873,1.9a5.894,5.894,0,0,1,.5,2.643,6.24,6.24,0,0,1-.682,2.729h2.5A3.688,3.688,0,0,1,21.827,10.9Z" fill="#ffffff"/>
</svg>
